<svg xmlns="http://www.w3.org/2000/svg" width="60" height="60" viewBox="0 0 60 60">
  <defs>
    <linearGradient id="pg" x1="0.403" y1="0.579" x2="0.999" y2="0.008" gradientUnits="objectBoundingBox">
      <stop offset="0.18" stop-color="#0758ff"/>
      <stop offset="1" stop-color="#91e0e0"/>
    </linearGradient>
  </defs>
  <g transform="translate(1 4) scale(1.82)">
    <path d="M26.022,0H4.5A4.411,4.411,0,0,0,1.823.892,3.568,3.568,0,0,0,.4,3.769,3.666,3.666,0,0,0,1.874,6.733L13.288,15.3a4.237,4.237,0,0,0,5.352.045l4.014-3.227v.707a1.829,1.829,0,0,0,1.733,1.853,1.784,1.784,0,0,0,1.829-1.784V7.805a1.784,1.784,0,0,0-1.784-1.784H19.3a1.829,1.829,0,0,0-1.851,1.735,1.784,1.784,0,0,0,1.784,1.826h.908L16.4,12.569a.669.669,0,0,1-.845-.013l-.089-.069L4.33,4.123a.321.321,0,0,1-.109-.359.288.288,0,0,1,.279-.2H26.022a2.275,2.275,0,0,1,2.273,2.275V20.232a2.277,2.277,0,0,1-2.273,2.275H5.86a2.277,2.277,0,0,1-2.268-2.275V12.7a1.829,1.829,0,0,0-1.733-1.851A1.784,1.784,0,0,0,.03,12.631v7.6a5.843,5.843,0,0,0,5.836,5.836H26.029a5.841,5.841,0,0,0,5.834-5.836V5.836A5.841,5.841,0,0,0,26.022,0Z" fill="url(#pg)"/>
  </g>
</svg>
